<?xml version="1.0" encoding="utf-8" ?>	<!-- Generator: Assembly 2.4 - http://assemblyapp.co -->	<svg version="1.1" xmlns="http://www.w3.org/2000/svg" xmlns:xlink="http://www.w3.org/1999/xlink" width="4096.00" height="2304.00" viewBox="0 0 4096.0 2304.0">		<g id="document" transform="scale(1.0 1.0) translate(2048.0 1151.9999914169312)">			<path d="M-842.31,-84.0372 C-805.087,-84.0372 -777.17,-84.0372 -758.558,-84.0372 C-758.558,-121.26 -758.558,-149.368 -758.558,-168.359 C-758.558,-179.754 -762.546,-189.63 -770.523,-197.986 C-778.879,-205.962 -788.755,-209.95 -800.149,-209.95 C-874.976,-209.95 -931.001,-209.95 -968.224,-209.95 C-979.999,-209.95 -989.874,-205.962 -997.85,-197.986 C-1006.21,-189.63 -1010.38,-179.754 -1010.38,-168.359 C-1010.38,-131.136 -1010.38,-98.4707 -1010.38,-70.3633 C-1010.38,-42.256 -1010.38,-18.8965 -1010.38,-0.284872 C-1010.38,11.4898 -1006.21,21.5553 -997.85,29.9115 C-989.874,37.8879 -979.999,41.8762 -968.224,41.8762 C-912.389,41.8762 -870.418,41.8762 -842.31,41.8762 C-842.31,79.0994 -842.31,107.207 -842.31,126.198 C-879.534,126.198 -907.641,126.198 -926.633,126.198 C-926.633,107.207 -926.633,93.1531 -926.633,84.0372 C-963.856,84.0372 -991.773,84.0372 -1010.38,84.0372 C-1010.38,121.26 -1010.38,149.178 -1010.38,167.789 C-1010.38,179.564 -1006.21,189.44 -997.85,197.416 C-989.874,205.772 -979.999,209.95 -968.224,209.95 C-893.777,209.95 -837.753,209.95 -800.149,209.95 C-788.755,209.95 -778.879,205.772 -770.523,197.416 C-762.546,189.44 -758.558,179.564 -758.558,167.789 C-758.558,93.343 -758.558,37.3182 -758.558,-0.284872 C-758.558,-11.6797 -762.546,-21.5553 -770.523,-29.9115 C-778.879,-37.8879 -788.755,-41.8762 -800.149,-41.8762 C-856.364,-41.8762 -898.525,-41.8762 -926.633,-41.8762 C-926.633,-79.4792 -926.633,-107.587 -926.633,-126.198 C-889.029,-126.198 -860.922,-126.198 -842.31,-126.198 C-842.31,-107.587 -842.31,-93.5329 -842.31,-84.0372 Z M-422.409,-168.359 C-422.409,-179.754 -426.398,-189.63 -434.374,-197.986 C-442.73,-205.962 -452.606,-209.95 -464.001,-209.95 C-520.215,-209.95 -562.376,-209.95 -590.484,-209.95 C-627.707,-209.95 -655.625,-209.95 -674.236,-209.95 C-674.236,-172.727 -674.236,-144.81 -674.236,-126.198 C-674.236,-88.975 -674.236,-60.8676 -674.236,-41.8762 C-674.236,-4.65291 -674.236,23.2645 -674.236,41.8762 C-674.236,79.4792 -674.236,112.145 -674.236,139.872 C-674.236,167.979 -674.236,191.339 -674.236,209.95 C-637.013,209.95 -609.095,209.95 -590.484,209.95 C-590.484,135.124 -590.484,79.0994 -590.484,41.8762 C-534.269,41.8762 -492.108,41.8762 -464.001,41.8762 C-452.606,41.8762 -442.73,37.8879 -434.374,29.9115 C-426.398,21.5553 -422.409,11.4898 -422.409,-0.284872 C-422.409,-74.7314 -422.409,-130.756 -422.409,-168.359 Z M-590.484,-41.8762 C-590.484,-79.4792 -590.484,-107.587 -590.484,-126.198 C-552.881,-126.198 -524.773,-126.198 -506.162,-126.198 C-506.162,-95.432 -506.162,-72.2625 -506.162,-56.6895 C-506.162,-50.2324 -506.162,-45.2946 -506.162,-41.8762 C-543.385,-41.8762 -571.492,-41.8762 -590.484,-41.8762 Z M-127.852,-0.284872 C-116.457,-0.284872 -106.582,-4.27308 -98.2254,-12.2495 C-90.249,-20.6057 -86.2608,-30.4813 -86.2608,-41.8762 C-86.2608,-98.0908 -86.2608,-140.252 -86.2608,-168.359 C-86.2608,-179.754 -90.249,-189.63 -98.2254,-197.986 C-106.582,-205.962 -116.457,-209.95 -127.852,-209.95 C-184.067,-209.95 -226.228,-209.95 -254.335,-209.95 C-291.558,-209.95 -319.476,-209.95 -338.087,-209.95 C-338.087,-172.727 -338.087,-140.062 -338.087,-111.955 C-338.087,-83.8473 -338.087,-60.4878 -338.087,-41.8762 C-338.087,-4.65291 -338.087,23.2645 -338.087,41.8762 C-338.087,116.702 -338.087,172.727 -338.087,209.95 C-300.864,209.95 -272.947,209.95 -254.335,209.95 C-254.335,135.124 -254.335,79.0994 -254.335,41.8762 C-216.732,41.8762 -188.625,41.8762 -170.013,41.8762 C-170.013,116.702 -170.013,172.727 -170.013,209.95 C-132.79,209.95 -104.872,209.95 -86.2608,209.95 C-86.2608,135.124 -86.2608,79.0994 -86.2608,41.8762 C-86.2608,30.1015 -90.249,20.2259 -98.2254,12.2495 C-106.582,3.89325 -116.457,-0.284872 -127.852,-0.284872 Z M-170.013,-41.8762 C-207.236,-41.8762 -235.344,-41.8762 -254.335,-41.8762 C-254.335,-79.4792 -254.335,-107.587 -254.335,-126.198 C-216.732,-126.198 -188.625,-126.198 -170.013,-126.198 C-170.013,-95.432 -170.013,-72.2625 -170.013,-56.6895 C-170.013,-50.2324 -170.013,-45.2946 -170.013,-41.8762 Z M249.888,-168.359 C249.888,-179.754 245.9,-189.63 237.923,-197.986 C229.567,-205.962 219.691,-209.95 208.297,-209.95 C133.47,-209.95 77.4455,-209.95 40.2223,-209.95 C28.4476,-209.95 18.572,-205.962 10.5956,-197.986 C2.23936,-189.63 -1.93876,-179.754 -1.93876,-168.359 C-1.93876,-121.64 -1.93876,-80.6187 -1.93876,-45.2946 C-1.93876,-10.7302 -1.93876,18.1368 -1.93876,41.3064 C-1.93876,97.5211 -1.93876,139.682 -1.93876,167.789 C-1.93876,179.564 2.23936,189.44 10.5956,197.416 C18.572,205.772 28.4476,209.95 40.2223,209.95 C114.669,209.95 170.694,209.95 208.297,209.95 C219.691,209.95 229.567,205.772 237.923,197.416 C245.9,189.44 249.888,179.564 249.888,167.789 C249.888,18.5167 249.888,-93.5329 249.888,-168.359 Z M81.8135,126.198 C81.8135,69.9835 81.8135,27.8225 81.8135,-0.284872 C81.8135,-56.1197 81.8135,-98.0908 81.8135,-126.198 C119.417,-126.198 147.524,-126.198 166.136,-126.198 C166.136,-21.3654 166.136,57.2592 166.136,109.676 C166.136,116.892 166.136,122.4 166.136,126.198 C128.912,126.198 100.805,126.198 81.8135,126.198 Z M586.037,-209.95 C548.813,-209.95 520.896,-209.95 502.284,-209.95 C502.284,-60.6777 502.284,51.3719 502.284,126.198 C465.061,126.198 436.954,126.198 417.962,126.198 C417.962,-23.4544 417.962,-135.504 417.962,-209.95 C380.739,-209.95 352.822,-209.95 334.21,-209.95 C334.21,-126.008 334.21,-52.5114 334.21,10.5403 C334.21,73.5919 334.21,126.008 334.21,167.789 C334.21,179.564 338.388,189.44 346.744,197.416 C354.721,205.772 364.596,209.95 376.371,209.95 C450.817,209.95 506.842,209.95 544.445,209.95 C555.84,209.95 565.716,205.772 574.072,197.416 C582.048,189.44 586.037,179.564 586.037,167.789 C586.037,-0.0949573 586.037,-126.008 586.037,-209.95 Z M922.185,-209.95 C880.404,-209.95 796.462,-209.95 670.359,-209.95 C670.359,-203.114 670.359,-192.668 670.359,-178.615 C670.359,-164.561 670.359,-147.089 670.359,-126.198 C684.412,-126.198 712.33,-126.198 754.111,-126.198 C754.111,-69.9835 754.111,42.0661 754.111,209.95 C768.165,209.95 796.272,209.95 838.433,209.95 C838.433,154.116 838.433,42.0661 838.433,-126.198 C852.487,-126.198 880.404,-126.198 922.185,-126.198 C922.185,-144.81 922.185,-172.727 922.185,-209.95 Z M1006.51,-209.95 C1006.51,-104.738 1006.51,-17.1873 1006.51,52.7013 C1006.51,122.59 1006.51,175.006 1006.51,209.95 C1048.67,209.95 1076.59,209.95 1090.26,209.95 C1090.26,157.534 1090.26,122.59 1090.26,105.118 C1090.26,-52.5114 1090.26,-157.534 1090.26,-209.95 C1048.48,-209.95 1020.56,-209.95 1006.51,-209.95 Z M1258.33,126.198 C1258.33,126.198 1258.33,126.198 1258.33,126.198 C1258.33,112.145 1258.33,84.0372 1258.33,41.8762 C1279.6,41.8762 1321.77,41.8762 1384.82,41.8762 C1384.82,27.8225 1384.82,-0.0949573 1384.82,-41.8762 C1363.55,-41.8762 1321.39,-41.8762 1258.33,-41.8762 C1258.33,-55.9298 1258.33,-84.0372 1258.33,-126.198 C1286.44,-126.198 1342.47,-126.198 1426.41,-126.198 C1426.41,-144.81 1426.41,-172.727 1426.41,-209.95 C1389.19,-209.95 1333.16,-209.95 1258.33,-209.95 C1239.72,-209.95 1211.8,-209.95 1174.58,-209.95 C1174.58,-191.339 1174.58,-163.421 1174.58,-126.198 C1174.58,-117.082 1174.58,-105.308 1174.58,-90.8741 C1174.58,-76.8204 1174.58,-60.4878 1174.58,-41.8762 C1174.58,-23.2645 1174.58,4.65291 1174.58,41.8762 C1174.58,60.4878 1174.58,88.5951 1174.58,126.198 C1174.58,144.81 1174.58,172.727 1174.58,209.95 C1193.19,209.95 1221.11,209.95 1258.33,209.95 C1258.33,209.95 1258.33,209.95 1258.33,209.95 C1258.33,191.339 1258.33,163.421 1258.33,126.198 Z M1719.83,-209.95 C1709.19,-187.161 1688.11,-141.771 1656.58,-73.7818 C1645.95,-96.5715 1624.87,-141.961 1593.34,-209.95 C1577.77,-209.95 1546.43,-209.95 1499.34,-209.95 C1518.33,-171.588 1556.69,-94.6724 1614.42,20.7956 C1614.42,52.3214 1614.42,115.373 1614.42,209.95 C1628.48,209.95 1656.58,209.95 1698.75,209.95 C1698.75,178.425 1698.75,115.373 1698.75,20.7956 C1724.19,-30.4813 1762.56,-107.397 1813.83,-209.95 C1792.94,-209.95 1761.61,-209.95 1719.83,-209.95 Z " fill="#d87216" fill-opacity="1.00" />			<path d="M-1199.34,-305.099 C-1620.47,-335.356 -1839.63,-100.664 -1799.56,271.409 C-1684.26,61.2494 -1664.63,-33.6086 -1426.67,-147.275 C-1608.21,-11.5296 -1671.99,146.295 -1747.22,340.917 C-1699.8,331.104 -1636.01,296.759 -1582.86,277.133 C-1472.46,235.429 -1352.26,162.649 -1322.82,21.9978 C-1283.57,-167.718 -1211.6,-287.926 -1199.34,-305.099 Z " fill="#f4dd4c" fill-opacity="1.00" />		</g>	</svg>