<?xml version="1.0" encoding="UTF-8" standalone="no"?>
<!DOCTYPE svg PUBLIC "-//W3C//DTD SVG 1.1//EN" "http://www.w3.org/Graphics/SVG/1.1/DTD/svg11.dtd">
<!-- Created with Vectornator (http://vectornator.io/) -->
<svg height="100%" stroke-miterlimit="10" style="fill-rule:nonzero;clip-rule:evenodd;stroke-linecap:round;stroke-linejoin:round;" version="1.1" viewBox="0 0 920 160" width="100%" xml:space="preserve" xmlns="http://www.w3.org/2000/svg" xmlns:vectornator="http://vectornator.io" xmlns:xlink="http://www.w3.org/1999/xlink">
<defs/>
<g id="Layer-1" vectornator:layerName="Layer 1">
<g fill="#adadad" opacity="1" stroke="none" vectornator:layerName="Text 1">
<path d="M316.071 57.395L287.433 57.395L287.433 48.6059C287.433 44.5044 287.067 41.8921 286.334 40.769C285.602 39.646 284.381 39.0844 282.672 39.0844C280.817 39.0844 279.413 39.8413 278.461 41.355C277.509 42.8686 277.033 45.1635 277.033 48.2397C277.033 52.1948 277.57 55.1733 278.644 57.1753C279.669 59.1772 282.575 61.5942 287.36 64.4262C301.08 72.5805 309.723 79.27 313.287 84.4946C316.852 89.7192 318.634 98.1421 318.634 109.763C318.634 118.21 317.645 124.436 315.668 128.44C313.69 132.444 309.869 135.801 304.205 138.511C298.541 141.221 291.95 142.576 284.43 142.576C276.178 142.576 269.135 141.013 263.3 137.888C257.465 134.763 253.644 130.784 251.837 125.95C250.031 121.116 249.127 114.255 249.127 105.369L249.127 97.605L277.765 97.605L277.765 112.034C277.765 116.477 278.168 119.333 278.973 120.603C279.779 121.873 281.207 122.507 283.258 122.507C285.309 122.507 286.835 121.702 287.836 120.09C288.837 118.479 289.337 116.086 289.337 112.913C289.337 105.93 288.385 101.365 286.481 99.2163C284.528 97.0678 279.718 93.479 272.052 88.4497C264.386 83.3716 259.308 79.685 256.818 77.3901C254.327 75.0952 252.264 71.9214 250.629 67.8686C248.993 63.8159 248.175 58.6401 248.175 52.3413C248.175 43.2593 249.335 36.6186 251.654 32.4194C253.973 28.2202 257.721 24.9365 262.897 22.5683C268.073 20.2002 274.323 19.0161 281.647 19.0161C289.655 19.0161 296.478 20.31 302.118 22.8979C307.758 25.4858 311.493 28.7451 313.324 32.6758C315.155 36.6064 316.071 43.2837 316.071 52.7075L316.071 57.395Z"/>
<path d="M328.302 21.5063L359.357 21.5063C367.755 21.5063 374.213 22.1655 378.729 23.4839C383.246 24.8022 386.639 26.7065 388.91 29.1968C391.181 31.687 392.719 34.7021 393.524 38.2422C394.33 41.7822 394.733 47.2632 394.733 54.685L394.733 65.0122C394.733 72.5805 393.952 78.0981 392.389 81.5649C390.827 85.0317 387.958 87.6928 383.783 89.5483C379.608 91.4038 374.152 92.3315 367.413 92.3315L359.137 92.3315L359.137 140.085L328.302 140.085L328.302 21.5063ZM359.137 41.7944L359.137 71.9702C360.016 72.019 360.773 72.0434 361.408 72.0434C364.24 72.0434 366.205 71.3476 367.304 69.956C368.402 68.5644 368.952 65.6714 368.952 61.2768L368.952 51.5356C368.952 47.4829 368.317 44.8462 367.047 43.6255C365.778 42.4048 363.141 41.7944 359.137 41.7944Z"/>
<path d="M403.595 21.5063L425.421 21.5063C439.972 21.5063 449.823 22.0678 454.974 23.1909C460.126 24.3139 464.325 27.1826 467.572 31.7968C470.819 36.4111 472.443 43.7719 472.443 53.8794C472.443 63.1079 471.295 69.3091 469 72.4829C466.705 75.6567 462.189 77.561 455.451 78.1958C461.554 79.7094 465.656 81.7358 467.755 84.2749C469.855 86.8139 471.161 89.1455 471.674 91.2695C472.186 93.3935 472.443 99.2407 472.443 108.811L472.443 140.085L443.805 140.085L443.805 100.681C443.805 94.3335 443.305 90.4028 442.304 88.8891C441.303 87.3755 438.678 86.6186 434.43 86.6186L434.43 140.085L403.595 140.085L403.595 21.5063ZM434.43 41.7944L434.43 68.1616C437.897 68.1616 440.326 67.6855 441.718 66.7334C443.109 65.7812 443.805 62.6928 443.805 57.4682L443.805 50.9497C443.805 47.1899 443.134 44.7241 441.791 43.5522C440.448 42.3803 437.994 41.7944 434.43 41.7944Z"/>
<path d="M554.84 90.9399C554.84 102.854 554.559 111.289 553.998 116.245C553.436 121.201 551.679 125.73 548.724 129.832C545.77 133.933 541.779 137.082 536.749 139.28C531.72 141.477 525.861 142.576 519.171 142.576C512.824 142.576 507.123 141.538 502.069 139.463C497.015 137.388 492.951 134.275 489.874 130.124C486.798 125.974 484.967 121.457 484.381 116.575C483.795 111.692 483.502 103.147 483.502 90.9399L483.502 70.6518C483.502 58.7378 483.783 50.3027 484.345 45.3467C484.906 40.3906 486.664 35.8618 489.618 31.7602C492.572 27.6587 496.564 24.5093 501.593 22.312C506.622 20.1147 512.482 19.0161 519.171 19.0161C525.519 19.0161 531.22 20.0537 536.273 22.1289C541.327 24.2041 545.392 27.3169 548.468 31.4673C551.544 35.6177 553.375 40.1343 553.961 45.0171C554.547 49.8999 554.84 58.4448 554.84 70.6518L554.84 90.9399ZM524.005 51.9751C524.005 46.4575 523.7 42.9297 523.09 41.3916C522.479 39.8535 521.222 39.0844 519.318 39.0844C517.706 39.0844 516.473 39.707 515.619 40.9521C514.764 42.1972 514.337 45.8716 514.337 51.9751L514.337 107.346C514.337 114.231 514.618 118.479 515.18 120.09C515.741 121.702 517.047 122.507 519.098 122.507C521.198 122.507 522.54 121.58 523.126 119.724C523.712 117.869 524.005 113.45 524.005 106.467L524.005 51.9751Z"/>
<path d="M636.432 21.5063L636.432 100.754C636.432 109.739 636.139 116.05 635.553 119.687C634.967 123.325 633.234 127.061 630.353 130.894C627.472 134.727 623.676 137.632 618.964 139.609C614.252 141.587 608.698 142.576 602.301 142.576C595.221 142.576 588.971 141.404 583.551 139.06C578.131 136.716 574.078 133.665 571.393 129.905C568.707 126.145 567.12 122.178 566.632 118.003C566.144 113.828 565.9 105.051 565.9 91.6723L565.9 21.5063L596.735 21.5063L596.735 110.422C596.735 115.598 597.015 118.906 597.577 120.347C598.139 121.787 599.274 122.507 600.983 122.507C602.936 122.507 604.193 121.714 604.755 120.127C605.316 118.54 605.597 114.792 605.597 108.884L605.597 21.5063L636.432 21.5063Z"/>
<path d="M710.48 21.5063L710.48 45.2368L692.169 45.2368L692.169 140.085L661.334 140.085L661.334 45.2368L643.097 45.2368L643.097 21.5063L710.48 21.5063Z"/>
<path d="M748.346 21.5063L748.346 140.085L717.511 140.085L717.511 21.5063L748.346 21.5063Z"/>
<path d="M760.724 21.5063L812.946 21.5063L812.946 45.2368L791.559 45.2368L791.559 67.7221L810.602 67.7221L810.602 90.2807L791.559 90.2807L791.559 140.085L760.724 140.085L760.724 21.5063Z"/>
<path d="M889.41 21.5063L866.925 97.1655L866.925 140.085L838.361 140.085L838.361 97.1655L816.681 21.5063L845.026 21.5063C849.469 44.602 851.959 60.1538 852.496 68.1616C854.205 55.5151 857.062 39.9634 861.066 21.5063L889.41 21.5063Z"/>
</g>
<path d="M42.1721 14.5658C41.342 18.35 40.7561 22.5248 40.4143 27.0902C40.0725 31.6557 39.9016 35.6596 39.9016 39.102C39.9016 53.3354 41.9341 66.226 45.999 77.7738C50.064 89.3217 55.8867 99.246 63.4673 107.547C71.0479 115.848 80.1238 122.232 90.6951 126.7C101.266 131.167 113.071 133.401 126.108 133.401C133.09 133.401 139.322 132.675 144.803 131.222C150.284 129.77 155.075 127.902 159.177 125.619C163.278 123.337 166.763 120.92 169.632 118.368C172.5 115.817 174.826 113.437 176.608 111.227C178.39 109.018 179.709 107.278 180.563 106.009L166.208 104.764C170.016 108.792 173.086 112.735 175.418 116.592C177.75 120.45 179.727 124.533 181.351 128.842C182.974 133.151 184.64 138.003 186.349 143.399C186.96 145.328 187.93 146.762 189.261 147.702C190.591 148.642 192.087 149.112 193.747 149.112C196.896 149.112 199.576 147.897 201.785 145.468C203.995 143.039 205.099 140.017 205.099 136.404C205.099 133.743 204.281 130.722 202.646 127.34C201.01 123.959 198.935 120.523 196.42 117.032C193.906 113.54 191.33 110.306 188.693 107.327C186.056 104.349 183.761 101.932 181.808 100.076C176.169 94.8515 170.169 90.8415 163.809 88.046C157.449 85.2506 150.998 83.151 144.455 81.7472C137.912 80.3434 131.552 79.1532 125.375 78.1767C119.198 77.2001 113.449 75.9611 108.127 74.4596C102.804 72.9582 98.178 70.706 94.2473 67.703C90.3167 64.7001 87.3503 60.4521 85.3484 54.9589C84.9822 53.9335 85.1775 53.2011 85.9343 52.7616C86.6912 52.3222 87.4724 52.5053 88.2781 53.3109C92.5261 57.9252 97.0183 61.331 101.755 63.5282C106.491 65.7255 111.392 67.2331 116.458 68.0509C121.524 68.8688 126.694 69.4486 131.967 69.7904C137.24 70.1322 142.563 70.7365 147.934 71.6032C153.305 72.4699 158.67 74.0385 164.029 76.309C169.388 78.5795 174.679 82.1073 179.904 86.8925C181.662 88.455 183.45 88.9738 185.269 88.4489C187.088 87.924 188.168 86.7094 188.51 84.8051C188.705 83.7797 188.858 82.4735 188.968 80.8866C189.078 79.2997 189.133 77.6273 189.133 75.8695C189.133 63.7846 186.539 53.5917 181.351 45.2909C176.163 36.9901 168.863 30.6974 159.451 26.4127C150.04 22.1281 138.998 19.9857 126.327 19.9857C122.25 19.9857 118.021 20.2482 113.638 20.7731C109.256 21.298 104.935 21.829 100.674 22.3661C96.4141 22.9032 92.4529 23.1718 88.7908 23.1718C84.9578 23.1718 81.0149 22.9643 76.9622 22.5492C72.9094 22.1342 68.9055 21.0905 64.9504 19.4181C60.9954 17.7458 57.2234 15.0541 53.6345 11.3432C51.5593 9.24355 49.3132 8.49282 46.8962 9.09097C44.4793 9.68911 42.9045 11.5141 42.1721 14.5658Z" fill="#adadad" opacity="1" stroke="none" vectornator:layerName="Text 2"/>
</g>
</svg>
